<?xml version="1.0" encoding="utf-8"?>
<!-- Generator: Adobe Illustrator 22.0.1, SVG Export Plug-In . SVG Version: 6.00 Build 0)  -->
<svg version="1.1" id="Capa_1" xmlns="http://www.w3.org/2000/svg" xmlns:xlink="http://www.w3.org/1999/xlink" x="0px" y="0px"
	 viewBox="0 0 29.4 21.2" style="enable-background:new 0 0 29.4 21.2;" xml:space="preserve">
<style type="text/css">
	.st0{fill:url(#SVGID_1_);}
</style>
<linearGradient id="SVGID_1_" gradientUnits="userSpaceOnUse" x1="20.0477" y1="-4.4422" x2="11.1727" y2="20.5578">
	<stop  offset="0" style="stop-color:#324BC3"/>
	<stop  offset="1" style="stop-color:#EC3F8C"/>
</linearGradient>
<path class="st0" d="M26.5,0H2.9C1.3,0,0,1.3,0,2.9v15.5c0,1.6,1.3,2.9,2.9,2.9h23.7c1.6,0,2.9-1.3,2.9-2.9V2.9
	C29.4,1.3,28.1,0,26.5,0z M27.3,18.4c0,0.4-0.3,0.8-0.8,0.8H2.9c-0.4,0-0.8-0.3-0.8-0.8V3.6l10.5,9.2c0.6,0.5,1.3,0.8,2.1,0.8
	c0.8,0,1.5-0.3,2.1-0.8l10.5-9.2V18.4z M15.4,11.2c-0.4,0.3-1,0.3-1.4,0L3.6,2.1h22.1L15.4,11.2z"/>
</svg>
