<?xml version="1.0" encoding="utf-8"?>
<!-- Generator: Adobe Illustrator 22.0.1, SVG Export Plug-In . SVG Version: 6.00 Build 0)  -->
<svg version="1.1" id="Isolation_Mode" xmlns="http://www.w3.org/2000/svg" xmlns:xlink="http://www.w3.org/1999/xlink" x="0px"
	 y="0px" viewBox="0 0 373.7 362.1" style="enable-background:new 0 0 373.7 362.1;" xml:space="preserve">
<style type="text/css">
	.st0{fill:url(#SVGID_1_);}
	.st1{fill:url(#SVGID_2_);}
	.st2{fill:url(#SVGID_3_);}
	.st3{fill:url(#SVGID_4_);}
	.st4{fill:url(#SVGID_5_);}
	.st5{fill:url(#SVGID_6_);}
	.st6{fill:url(#SVGID_7_);}
	.st7{fill:url(#SVGID_8_);}
	.st8{fill:url(#SVGID_9_);}
	.st9{fill:url(#SVGID_10_);}
</style>
<g>
	<linearGradient id="SVGID_1_" gradientUnits="userSpaceOnUse" x1="187.3743" y1="-3.9223" x2="187.3743" y2="338.0606">
		<stop  offset="0" style="stop-color:#324BC3"/>
		<stop  offset="1" style="stop-color:#EC3F8C"/>
	</linearGradient>
	<path class="st0" d="M187.4,105c-45,0-81.5,36.6-81.5,81.5c0,45,36.6,81.5,81.5,81.5c45,0,81.5-36.6,81.5-81.5
		C268.9,141.6,232.3,105,187.4,105z M187.4,244.8c-32.1,0-58.2-26.1-58.2-58.2s26.1-58.2,58.2-58.2c32.1,0,58.2,26.1,58.2,58.2
		S219.5,244.8,187.4,244.8z"/>
	<linearGradient id="SVGID_2_" gradientUnits="userSpaceOnUse" x1="90.2588" y1="-3.9223" x2="90.2588" y2="338.0606">
		<stop  offset="0" style="stop-color:#324BC3"/>
		<stop  offset="1" style="stop-color:#EC3F8C"/>
	</linearGradient>
	<path class="st1" d="M104.9,121.2c2,2.2,4.7,3.6,7.6,3.8c0.3,0,0.5,0,0.8,0c2.7,0,5.3-1,7.4-2.8c4.6-4.1,5.1-11.1,1-15.8L75.6,53.7
		c-2-2.3-4.7-3.6-7.7-3.8c-3-0.2-5.9,0.8-8.2,2.7c-4.6,4-5.1,11.1-1.1,15.8L104.9,121.2z"/>
	<linearGradient id="SVGID_3_" gradientUnits="userSpaceOnUse" x1="187.464" y1="-3.9223" x2="187.464" y2="338.0606">
		<stop  offset="0" style="stop-color:#324BC3"/>
		<stop  offset="1" style="stop-color:#EC3F8C"/>
	</linearGradient>
	<path class="st2" d="M187.7,92.4C187.8,92.4,187.8,92.4,187.7,92.4c3.1,0,5.9-1.2,8-3.4c2.1-2.1,3.2-4.9,3.2-7.9l-0.5-70.1
		C198.3,5,193.3,0,187.2,0c0,0,0,0,0,0C181,0,176,5.1,176,11.3l0.5,70C176.6,87.5,181.6,92.4,187.7,92.4z"/>
	<linearGradient id="SVGID_4_" gradientUnits="userSpaceOnUse" x1="46.1048" y1="-3.9223" x2="46.1048" y2="338.0606">
		<stop  offset="0" style="stop-color:#324BC3"/>
		<stop  offset="1" style="stop-color:#EC3F8C"/>
	</linearGradient>
	<path class="st3" d="M81,187.8c5.8,0,10.7-4.5,11.2-10.3c0.5-6.1-4.1-11.5-10.3-12l-69.9-5.7c-6.2-0.4-11.5,4.2-12,10.2
		c-0.3,3,0.6,5.9,2.6,8.1c1.9,2.3,4.7,3.7,7.7,4l69.8,5.7C80.4,187.8,80.7,187.8,81,187.8z"/>
	<linearGradient id="SVGID_5_" gradientUnits="userSpaceOnUse" x1="66.4712" y1="-3.9223" x2="66.4712" y2="338.0606">
		<stop  offset="0" style="stop-color:#324BC3"/>
		<stop  offset="1" style="stop-color:#EC3F8C"/>
	</linearGradient>
	<path class="st4" d="M98.5,231.1c-2.9-0.7-5.9-0.1-8.5,1.5l0,0L30.9,270c-2.5,1.6-4.3,4.1-5,7c-0.7,2.9-0.1,5.9,1.5,8.4
		c1.6,2.5,4.1,4.3,7,5c0.8,0.2,1.7,0.3,2.5,0.3c2.1,0,4.2-0.6,6-1.7l59.2-37.4c2.5-1.6,4.3-4.1,4.9-7c0.7-2.9,0.1-5.9-1.5-8.4
		C103.9,233.5,101.5,231.8,98.5,231.1z"/>
	<linearGradient id="SVGID_6_" gradientUnits="userSpaceOnUse" x1="139.1167" y1="-3.9223" x2="139.1167" y2="338.0606">
		<stop  offset="0" style="stop-color:#324BC3"/>
		<stop  offset="1" style="stop-color:#EC3F8C"/>
	</linearGradient>
	<path class="st5" d="M155.4,274.7c-5.8-2.2-12.2,0.8-14.4,6.5l-24.7,65.6c-1.1,2.8-1,5.9,0.3,8.6c1.2,2.7,3.5,4.8,6.3,5.8
		c1.3,0.5,2.6,0.7,3.9,0.7c4.5,0,8.8-2.8,10.5-7.2l24.7-65.6C164.1,283.3,161.1,276.8,155.4,274.7z"/>
	<linearGradient id="SVGID_7_" gradientUnits="userSpaceOnUse" x1="313.305" y1="-3.9223" x2="313.305" y2="338.0606">
		<stop  offset="0" style="stop-color:#324BC3"/>
		<stop  offset="1" style="stop-color:#EC3F8C"/>
	</linearGradient>
	<path class="st6" d="M349.5,267.1l-62-32.6c-2.7-1.4-5.7-1.7-8.6-0.8c-2.9,0.9-5.2,2.8-6.6,5.5c-1.4,2.6-1.7,5.7-0.8,8.5
		c0.9,2.9,2.8,5.2,5.5,6.6l62,32.6c1.7,0.9,3.4,1.3,5.2,1.3c4.1,0,8-2.2,9.9-6c1.4-2.6,1.7-5.6,0.8-8.5
		C354.2,270.9,352.2,268.5,349.5,267.1z"/>
	<linearGradient id="SVGID_8_" gradientUnits="userSpaceOnUse" x1="327.6826" y1="-3.9223" x2="327.6826" y2="338.0606">
		<stop  offset="0" style="stop-color:#324BC3"/>
		<stop  offset="1" style="stop-color:#EC3F8C"/>
	</linearGradient>
	<path class="st7" d="M373.6,158.8c-0.3-3-1.8-5.6-4.1-7.5c-2.4-1.9-5.3-2.7-8.3-2.4l-69.6,8.1c-3,0.3-5.6,1.8-7.5,4.2
		c-1.9,2.4-2.7,5.3-2.3,8.3c0.3,3,1.8,5.6,4.2,7.5c2,1.6,4.4,2.4,6.9,2.4c0.4,0,0.9,0,1.3-0.1l69.6-8.1
		C369.9,170.4,374.3,164.8,373.6,158.8z"/>
	<linearGradient id="SVGID_9_" gradientUnits="userSpaceOnUse" x1="230.4912" y1="-3.9223" x2="230.4912" y2="338.0606">
		<stop  offset="0" style="stop-color:#324BC3"/>
		<stop  offset="1" style="stop-color:#EC3F8C"/>
	</linearGradient>
	<path class="st8" d="M229.4,281.2c-1-2.8-3-5.1-5.7-6.4c-2.7-1.3-5.8-1.5-8.6-0.5c-2.8,1-5.1,3-6.4,5.7c-1.3,2.7-1.5,5.7-0.5,8.6
		l23.3,66.1c1.6,4.6,5.9,7.5,10.6,7.5c1.2,0,2.5-0.2,3.7-0.6c2.8-1,5.1-3,6.4-5.8c1.3-2.7,1.4-5.7,0.4-8.6L229.4,281.2z"/>
	<linearGradient id="SVGID_10_" gradientUnits="userSpaceOnUse" x1="276.1063" y1="-3.9223" x2="276.1063" y2="338.0606">
		<stop  offset="0" style="stop-color:#324BC3"/>
		<stop  offset="1" style="stop-color:#EC3F8C"/>
	</linearGradient>
	<path class="st9" d="M247.7,116.5c2,1.6,4.4,2.3,6.8,2.3c3.3,0,6.7-1.5,8.9-4.3l43.1-55.2c1.8-2.4,2.7-5.3,2.3-8.3
		c-0.4-3-1.9-5.6-4.2-7.5c-2.3-1.8-5.3-2.7-8.2-2.3c-3,0.4-5.6,1.9-7.5,4.2l-43.1,55.2C241.9,105.6,242.8,112.7,247.7,116.5z"/>
</g>
</svg>
