<svg xmlns="http://www.w3.org/2000/svg" viewBox="0 0 475.08 401.99"><defs><style>.cls-1{fill:#fff;}</style></defs><title>Table</title><g id="Layer_2" data-name="Layer 2"><g id="Capa_1" data-name="Capa 1"><path class="cls-1" d="M461.67,13.42A44,44,0,0,0,429.4,0H45.68A44,44,0,0,0,13.42,13.42,44,44,0,0,0,0,45.68V356.31a44,44,0,0,0,13.42,32.27A44,44,0,0,0,45.68,402H429.4a45.79,45.79,0,0,0,45.68-45.68V45.68A44,44,0,0,0,461.67,13.42ZM146.18,356.31a8.78,8.78,0,0,1-9.14,9.13H45.68a8.77,8.77,0,0,1-9.13-9.13V301.48a8.78,8.78,0,0,1,9.13-9.13H137a8.8,8.8,0,0,1,9.14,9.13v54.83Zm0-109.63a8.8,8.8,0,0,1-9.14,9.13H45.68a8.78,8.78,0,0,1-9.13-9.13V191.86a8.77,8.77,0,0,1,9.13-9.13H137a8.78,8.78,0,0,1,9.14,9.13v54.82Zm0-109.64a8.8,8.8,0,0,1-9.14,9.14H45.68A8.78,8.78,0,0,1,36.55,137V82.22a8.78,8.78,0,0,1,9.13-9.13H137a8.8,8.8,0,0,1,9.14,9.13V137ZM292.36,356.31a8.77,8.77,0,0,1-9.13,9.13H191.86a8.77,8.77,0,0,1-9.13-9.13V301.48a8.78,8.78,0,0,1,9.13-9.13h91.37a8.78,8.78,0,0,1,9.13,9.13V356.3h0Zm0-109.63a8.78,8.78,0,0,1-9.13,9.13H191.86a8.78,8.78,0,0,1-9.13-9.13V191.86a8.77,8.77,0,0,1,9.13-9.13h91.37a8.77,8.77,0,0,1,9.13,9.13v54.82Zm0-109.64a8.78,8.78,0,0,1-9.13,9.14H191.86a8.78,8.78,0,0,1-9.13-9.14V82.22a8.78,8.78,0,0,1,9.13-9.13h91.37a8.78,8.78,0,0,1,9.13,9.13V137ZM438.54,356.31a8.78,8.78,0,0,1-9.14,9.13H338.05a8.77,8.77,0,0,1-9.13-9.13V301.48a8.78,8.78,0,0,1,9.13-9.13H429.4a8.8,8.8,0,0,1,9.14,9.13Zm0-109.63a8.8,8.8,0,0,1-9.14,9.13H338.05a8.78,8.78,0,0,1-9.13-9.13V191.86a8.77,8.77,0,0,1,9.13-9.13H429.4a8.78,8.78,0,0,1,9.14,9.13Zm0-109.64a8.8,8.8,0,0,1-9.14,9.14H338.05a8.78,8.78,0,0,1-9.13-9.14V82.22a8.78,8.78,0,0,1,9.13-9.13H429.4a8.8,8.8,0,0,1,9.14,9.13Z"/></g></g></svg>