<?xml version="1.0" encoding="utf-8"?>
<!-- Generator: Adobe Illustrator 22.0.1, SVG Export Plug-In . SVG Version: 6.00 Build 0)  -->
<svg version="1.1" id="Capa_1" xmlns="http://www.w3.org/2000/svg" xmlns:xlink="http://www.w3.org/1999/xlink" x="0px" y="0px"
	 viewBox="0 0 563.4 536.6" style="enable-background:new 0 0 563.4 536.6;" xml:space="preserve">
<style type="text/css">
	.st0{fill:url(#SVGID_1_);}
	.st1{fill:url(#SVGID_2_);}
</style>
<g>
	<linearGradient id="SVGID_1_" gradientUnits="userSpaceOnUse" x1="339.064" y1="-11.0912" x2="137.064" y2="548.9088">
		<stop  offset="0" style="stop-color:#324BC3"/>
		<stop  offset="1" style="stop-color:#EC3F8C"/>
	</linearGradient>
	<path class="st0" d="M280.8,301.1c83.3,0,150.8-67.5,150.8-150.8S364.1,0,280.8,0S130,67.5,130,150.3S197.5,301.1,280.8,301.1z
		 M280.8,39.3c61.1,0,111,50,111,111s-50,111-111,111s-111-50-111-111S219.7,39.3,280.8,39.3z"/>
	<linearGradient id="SVGID_2_" gradientUnits="userSpaceOnUse" x1="452.0666" y1="29.6705" x2="250.0666" y2="589.6705">
		<stop  offset="0" style="stop-color:#324BC3"/>
		<stop  offset="1" style="stop-color:#EC3F8C"/>
	</linearGradient>
	<path class="st1" d="M374.2,327.5h-185C85.1,327.5,0,412.2,0,516.7c0,11.1,8.8,19.9,19.9,19.9h523.6c11.1,0,19.9-8.8,19.9-19.9
		C563.4,412.6,478.8,327.5,374.2,327.5z M41.2,496.8c9.7-72.6,72.2-129.5,148-129.5h185c75.9,0,138.3,56.4,148,129.5H41.2z"/>
</g>
</svg>
