<svg xmlns="http://www.w3.org/2000/svg" viewBox="0 0 22.4 20.39"><defs><style>.cls-1{fill:#fff;}</style></defs><title>Event Training</title><g id="Layer_2" data-name="Layer 2"><g id="Layer_1-2" data-name="Layer 1"><path class="cls-1" d="M21.7,2H20.4V.7a.7.7,0,0,0-.7-.7h-.25A13.69,13.69,0,0,0,11.2,2.82,13.6,13.6,0,0,0,3,0H2.7A.7.7,0,0,0,2,.7V2H.7a.7.7,0,0,0-.7.7v16a.7.7,0,0,0,.7.7H7.6a6.34,6.34,0,0,1,2.29.43l1,.5a.63.63,0,0,0,.27.06.71.71,0,0,0,.28-.06l1-.48a6.44,6.44,0,0,1,2.37-.45h6.9a.7.7,0,0,0,.7-.7V2.7A.7.7,0,0,0,21.7,2ZM21,3.4V18H15.71a12,12,0,0,1,3.77-.6h.22a.7.7,0,0,0,.7-.7V3.4Zm-2-2V16a13.62,13.62,0,0,0-7.1,2.29V4A12.12,12.12,0,0,1,19,1.41ZM10.5,4V18.3A13.62,13.62,0,0,0,3.4,16V1.41A12.26,12.26,0,0,1,10.5,4ZM2.7,17.4h.22a12,12,0,0,1,3.77.6H1.4V3.4H2V16.7A.7.7,0,0,0,2.7,17.4Z"/></g></g></svg>