<svg xmlns="http://www.w3.org/2000/svg" xmlns:xlink="http://www.w3.org/1999/xlink" viewBox="0 0 512 450"><defs><style>.cls-1{fill:url(#linear-gradient);}.cls-2{fill:url(#linear-gradient-2);}.cls-3{fill:url(#linear-gradient-3);}.cls-4{fill:url(#linear-gradient-6);}.cls-5{fill:url(#linear-gradient-7);}</style><linearGradient id="linear-gradient" x1="256" y1="4.89" x2="256" y2="445.53" gradientUnits="userSpaceOnUse"><stop offset="0" stop-color="#324bc3"/><stop offset="1" stop-color="#ec3f8c"/></linearGradient><linearGradient id="linear-gradient-2" x1="196" y1="4.89" x2="196" y2="445.53" xlink:href="#linear-gradient"/><linearGradient id="linear-gradient-3" x1="407" y1="4.89" x2="407" y2="445.53" xlink:href="#linear-gradient"/><linearGradient id="linear-gradient-6" x1="376.97" y1="4.89" x2="376.97" y2="445.53" xlink:href="#linear-gradient"/><linearGradient id="linear-gradient-7" x1="436.97" y1="4.89" x2="436.97" y2="445.53" xlink:href="#linear-gradient"/></defs><title>Electronics</title><g id="Layer_2" data-name="Layer 2"><g id="Capa_1" data-name="Capa 1"><path class="cls-1" d="M467,90H232.21l64.4-64.39A15,15,0,1,0,275.39,4.39L196,83.79,116.61,4.39A15,15,0,0,0,95.39,25.61L159.79,90H45A45.05,45.05,0,0,0,0,135V405a45.05,45.05,0,0,0,45,45H467a45.05,45.05,0,0,0,45-45V135A45.05,45.05,0,0,0,467,90Zm15,315a15,15,0,0,1-15,15H45a15,15,0,0,1-15-15V135a15,15,0,0,1,15-15H467a15,15,0,0,1,15,15Z"/><path class="cls-2" d="M317,150H75a15,15,0,0,0-15,15V375a15,15,0,0,0,15,15H317a15,15,0,0,0,15-15V165A15,15,0,0,0,317,150ZM302,360H90V180H302Z"/><path class="cls-3" d="M437,240H377a15,15,0,0,0,0,30h60a15,15,0,0,0,0-30Z"/><path class="cls-3" d="M437,300H377a15,15,0,0,0,0,30h60a15,15,0,0,0,0-30Z"/><path class="cls-3" d="M437,360H377a15,15,0,0,0,0,30h60a15,15,0,0,0,0-30Z"/><circle class="cls-4" cx="376.97" cy="195" r="15"/><circle class="cls-5" cx="436.97" cy="195" r="15"/></g></g></svg>