<svg xmlns="http://www.w3.org/2000/svg" viewBox="0 0 431.19 432.25"><defs><style>.cls-1{fill:#fff;}</style></defs><title>UI Components</title><g id="Layer_2" data-name="Layer 2"><g id="Capa_1" data-name="Capa 1"><path class="cls-1" d="M413.42,128.92h0a60.86,60.86,0,0,0,0-85.95l-43-43L334,36.43A214,214,0,0,0,214.55,1C96.05,1.6-.2,98.49,0,217A215.61,215.61,0,0,0,215.61,432.25a217.6,217.6,0,0,0,33.88-2.65,55.7,55.7,0,0,0,40.8-29.11,56.71,56.71,0,0,0,1.29-51,127.34,127.34,0,0,1,39.31-155.82L338,401.17v.17a32.44,32.44,0,0,0,64.81,0l7.39-214.44a23,23,0,0,0,4.33-13.52v-33.3a23.23,23.23,0,0,0-2.28-10C412.69,129.64,413.06,129.27,413.42,128.92Zm-33.51,67.74-7,203.32a2.47,2.47,0,0,1-4.92,0l-7-203.35ZM215.59,31a184.55,184.55,0,0,1,99.84,29.1,60.86,60.86,0,0,0,12,68.82c.36.35.74.72,1.14,1.09a23.24,23.24,0,0,0-2.29,10v20.63a158.5,158.5,0,0,0-52.41,51.22,157.54,157.54,0,0,0-9.5,150.24,27,27,0,0,1-.58,24.28,26,26,0,0,1-19,13.57,187,187,0,0,1-29.2,2.29A185.65,185.65,0,0,1,30,217c-.17-102,82.7-185.46,184.73-186ZM348.67,64.17l21.78-21.78,21.78,21.78a30.8,30.8,0,1,1-43.56,0Zm35.93,82.55v20H356.3v-20Z"/><path class="cls-1" d="M178.15,289.06a40,40,0,1,0,40,40A40,40,0,0,0,178.15,289.06Zm10,40a10,10,0,1,1-10-10A10,10,0,0,1,188.14,329Z"/><path class="cls-1" d="M105.73,220a40,40,0,1,0,40,40A40,40,0,0,0,105.73,220Zm10,40a10,10,0,1,1-10-10A10,10,0,0,1,115.71,259.93Z"/><path class="cls-1" d="M123.21,200a40,40,0,1,0-40-40A40,40,0,0,0,123.21,200Zm-10-40a10,10,0,1,1,10,10A10,10,0,0,1,113.22,160Z"/><path class="cls-1" d="M200.63,142.55a40,40,0,1,0-40-40A40,40,0,0,0,200.63,142.55Zm-10-40a10,10,0,1,1,10,10A10,10,0,0,1,190.64,102.59Z"/></g></g></svg>