<svg xmlns="http://www.w3.org/2000/svg" viewBox="0 0 91.8 91.84"><defs><style>.cls-1{fill:#fff;}</style></defs><title>Event Party</title><g id="Layer_2" data-name="Layer 2"><g id="Layer_1-2" data-name="Layer 1"><path class="cls-1" d="M53,67.18,24.63,38.8A2.5,2.5,0,0,0,22.38,38h0a2.47,2.47,0,0,0-1.87,1.51L.21,88.34A2.51,2.51,0,0,0,1.5,91.63a2.63,2.63,0,0,0,1,.21h.06l.94-.24,48.8-20.3A2.49,2.49,0,0,0,53.6,68,2.57,2.57,0,0,0,53,67.18ZM12.18,82.66l-5,2.06,2.05-5Zm11.81-5-6.91,2.89-5.82-5.83,2.88-6.9Zm11.9-5L29,75.55,16.26,62.82l2.88-6.9Zm11-4.6-6,2.49L21.26,50.92l2.48-6Z"/><path class="cls-1" d="M30.61,39.29l-.35.35,3.51,3.51.35-.36a19.89,19.89,0,0,0,5.33-9.74,20.23,20.23,0,0,0-.3-10.25L39,22.31l-4.75,1.5.14.47a15.25,15.25,0,0,1,.19,7.65A15,15,0,0,1,30.61,39.29Z"/><path class="cls-1" d="M30.17,17.54l2,6.93,5.19-5,6.94,1.73-1.73-7,5-5.2-6.93-2L38.72,0l-5.2,5-7-1.62,1.73,7-5,5.2Zm3.16-7.44,1.69.38L36.3,9.27l.46,1.67,1.67.46-1.21,1.29.38,1.68L35.92,14,34.63,15.2l-.46-1.67-1.67-.46,1.21-1.28Z"/><path class="cls-1" d="M67.9,57.55l1.5-4.75-.49-.14a20.38,20.38,0,0,0-20,5l-.35.36,3.5,3.5.36-.35a15.09,15.09,0,0,1,7.36-4,15.26,15.26,0,0,1,7.65.2Z"/><path class="cls-1" d="M91.8,53.09,84.87,51l-2.06-6.83-5.19,5-7-1.74,1.74,7-5,5.2,6.94,2,2,6.93,5.19-5,7,1.73-1.73-7ZM81.7,58.47,80,58.09,78.73,59.3l-.46-1.67-1.67-.46,1.21-1.28-.38-1.69,1.69.38,1.28-1.21L80.86,55l1.67.46-1.21,1.29Z"/><path class="cls-1" d="M57.06,34.74l2.06,6.93,5.2-5,7,1.62-1.73-7,5-5.1-6.93-2.05-2.06-6.93-5.19,5L53.5,20.45l1.62,7-5,5.19Zm3.17-7.44,1.68.38,1.29-1.21.46,1.68,1.67.45-1.21,1.29.38,1.68-1.68-.38L61.53,32.4l-.46-1.67-1.67-.46L60.61,29Z"/><rect class="cls-1" x="39.28" y="41.61" width="16.8" height="5" transform="translate(-17.23 46.63) rotate(-45)"/></g></g></svg>