<svg xmlns="http://www.w3.org/2000/svg" viewBox="0 0 368.47 360.19"><defs><style>.cls-1{fill:#fff;}</style></defs><title>Forms</title><g id="Layer_2" data-name="Layer 2"><g id="Capa_1" data-name="Capa 1"><path class="cls-1" d="M230.22,98.45A14.45,14.45,0,0,0,215.82,84H86.15a14.41,14.41,0,0,0,0,28.82H215.82A14.44,14.44,0,0,0,230.22,98.45Z"/><path class="cls-1" d="M200.2,175.29a14.44,14.44,0,0,0-14.4-14.4H86.15a14.41,14.41,0,1,0,0,28.81H185.8A14.44,14.44,0,0,0,200.2,175.29Z"/><path class="cls-1" d="M273.15,331.38H28.81V28.82H273.15V90.54L302,53.7V14.41A14.45,14.45,0,0,0,287.55,0H14.41A14.45,14.45,0,0,0,0,14.41V345.78a14.45,14.45,0,0,0,14.41,14.41H287.55A14.45,14.45,0,0,0,302,345.78V230.29l-28.81,36.85Z"/><path class="cls-1" d="M71.74,256.94a14.44,14.44,0,0,0,14.41,14.4h70L159,242.53H86.15A14.45,14.45,0,0,0,71.74,256.94Z"/><path class="cls-1" d="M362.94,89,342.05,72.65A18.61,18.61,0,0,0,316,75.84l-24.5,31.32h0L188.82,238.43l.56.44-4.61,47.35a4.79,4.79,0,0,0,6.44,4.95l43.91-16.52.53.42.67-.87h0L337.62,144.66h0l27.78-35.51A14.34,14.34,0,0,0,362.94,89Z"/></g></g></svg>