<?xml version="1.0" encoding="utf-8"?>
<!-- Generator: Adobe Illustrator 22.0.1, SVG Export Plug-In . SVG Version: 6.00 Build 0)  -->
<svg version="1.1" id="Capa_1" xmlns="http://www.w3.org/2000/svg" xmlns:xlink="http://www.w3.org/1999/xlink" x="0px" y="0px"
	 viewBox="0 0 512 512" style="enable-background:new 0 0 512 512;" xml:space="preserve">
<style type="text/css">
	.st0{fill:url(#SVGID_1_);}
</style>
<g>
	<g>
		<linearGradient id="SVGID_1_" gradientUnits="userSpaceOnUse" x1="409.8777" y1="44.0307" x2="130.8778" y2="555.0307">
			<stop  offset="0" style="stop-color:#324BC3"/>
			<stop  offset="1" style="stop-color:#EC3F8C"/>
		</linearGradient>
		<path class="st0" d="M444.3,356.5L421,341V206c0-85.9-66-156.7-150-164.3V15c0-8.3-6.7-15-15-15s-15,6.7-15,15v26.7
			C157,49.3,91,120.1,91,206v135l-23.3,15.5C63.5,359.3,61,364,61,369v60c0,8.3,6.7,15,15,15h98.9c7,38.6,40.7,68,81.1,68
			c40.4,0,74.1-29.4,81.1-68H436c8.3,0,15-6.7,15-15v-60C451,364,448.5,359.3,444.3,356.5z M256,482c-23.8,0-43.9-16.1-50.4-38
			h100.7C299.9,465.9,279.8,482,256,482z M421,414c-13.9,0-313.6,0-330,0v-37l23.3-15.5c4.2-2.8,6.7-7.5,6.7-12.5V206
			c0-74.4,60.6-135,135-135s135,60.6,135,135v143c0,5,2.5,9.7,6.7,12.5L421,377V414z"/>
	</g>
</g>
</svg>
