<?xml version="1.0" encoding="utf-8"?>
<!-- Generator: Adobe Illustrator 22.0.1, SVG Export Plug-In . SVG Version: 6.00 Build 0)  -->
<svg version="1.1" id="Layer_1" xmlns="http://www.w3.org/2000/svg" xmlns:xlink="http://www.w3.org/1999/xlink" x="0px" y="0px"
	 viewBox="0 0 435.9 349.5" style="enable-background:new 0 0 435.9 349.5;" xml:space="preserve">
<style type="text/css">
	.st0{fill:#D5D5D5;}
</style>
<title>Weather-Monday</title>
<g id="Layer_2_1_">
	<g id="Isolation_Mode">
		<path class="st0" d="M158.6,122.7c1.6,1.8,3.8,2.9,6.2,3.1h0.6c5,0,9-4,9.1-8.9c0-2.2-0.8-4.4-2.3-6.1l-48.4-55.3
			c-3.3-3.8-9-4.1-12.7-0.9s-4.1,9-0.9,12.7L158.6,122.7z"/>
		<path class="st0" d="M243.4,91.6L243.4,91.6c5,0,9-4.1,9-9.1c0,0,0,0,0,0L251.9,9c0-5-4.1-9-9.1-9l0,0c-5,0-9,4.1-8.9,9.1
			c0,0,0,0,0,0l0.5,73.5C234.5,87.6,238.5,91.5,243.4,91.6z"/>
		<path class="st0" d="M412,280.1l-65-34.2c-4.4-2.3-9.9-0.6-12.2,3.8c-2.3,4.4-0.6,9.9,3.8,12.2l0,0l65.1,34.2c1.3,0.7,2.7,1,4.2,1
			c3.4,0,6.4-1.8,8-4.8c1.1-2.1,1.4-4.5,0.7-6.8C415.8,283.2,414.2,281.2,412,280.1z"/>
		<path class="st0" d="M435.9,164.3c-0.6-4.9-5-8.5-10-7.9c0,0,0,0,0,0l-73,8.5c-4.9,0.6-8.5,5-7.9,10c0.6,4.9,5,8.5,10,7.9l73-8.5
			c2.4-0.3,4.6-1.5,6.1-3.4C435.5,169,436.2,166.6,435.9,164.3z"/>
		<path class="st0" d="M308.1,117.4c3.9,3,9.6,2.3,12.6-1.6l0,0l45.3-58c3.1-3.8,2.6-9.5-1.3-12.7c-3.8-3.1-9.5-2.6-12.7,1.3
			c-0.1,0.1-0.2,0.2-0.2,0.3l-45.3,58C303.4,108.6,304.1,114.3,308.1,117.4C308,117.4,308,117.4,308.1,117.4z"/>
		<path class="st0" d="M305.3,263.5c38.4-35.5,40.7-95.3,5.3-133.7c-32.9-35.6-87.4-40.6-126.2-11.5c-15.6,11.7-27.2,28-33.4,46.5
			c-8.4,1.2-16.6,4.1-23.8,8.5l-68.4-5.6c-4.9-0.4-9.3,3.3-9.7,8.3c-0.4,5,3.3,9.3,8.2,9.7c0,0,0,0,0,0l51.9,4.2
			c-4.9,6.7-8.3,14.4-10,22.5c-4.3-1.2-8.8-1.8-13.3-1.8c-28.8,0-52.2,23.1-52.7,51.9C18.5,267,0,276.4,0,304.9
			c0,24.1,21.3,43.8,47.5,43.8l2.4,0c14.4-0.7,71.5,0,77.9,0h2.6v-0.8c9.9,0.9,30,1,70.2,1h0.5c0.3,0,34.2,0.6,58.6,0.6
			c10.5,0,17.8-0.1,21.8-0.3c11.8-0.6,22.9-6,31.3-15.3c8.9-9.7,13.6-22.5,13.2-35.6C325.3,284.2,317.6,271.4,305.3,263.5z
			 M202.9,330.6h-1.5l0,0c-24,0-61.3-0.1-70.8-0.2h-2.4h-0.3l-1.9-0.1l0,0c-7.2-0.1-31-0.4-50.6-0.4c-13,0-21.9,0.1-26.3,0.3h-1.7
			c-16,0-29.1-11.4-29.1-25.4c0-16.9,8.6-22,26.8-26.5l6.6-2.6l0.4-6.6l-0.2-2.7l-0.1-0.8c-0.1-0.8-0.2-1.5-0.2-2.3
			c0-18.9,15.3-34.3,34.3-34.3c5.8,0,11.6,1.6,16.6,4.5l13.9,7.8l-0.3-16c-0.2-13.4,6.1-26.1,17-34c2.2-0.5,4.1-1.7,5.4-3.6
			c4.3-2.3,8.9-3.9,13.7-4.7c1.7-0.3,3.4-0.5,5.1-0.6l2.4-0.1c1.8,0,3.6,0.1,5.4,0.4c21,2.5,36.9,19.1,38,39.5c0,0.7,0,1.4-0.1,3.4
			l-0.8,23.9l16.5-16.9c13.3-13.5,35-13.7,48.5-0.4c6.6,6.4,10.3,15.2,10.3,24.4c0,2.2-0.2,4.5-0.7,6.7c0,0.1,0,0.2,0,0.4l-1.8,9
			l9.2,1.6c1.6,0.3,3.2,0.7,4.8,1.2c10.8,3.7,18,12.9,18.5,23.4l0,0c0.2,8.3-2.8,16.3-8.4,22.5c-4.7,5.4-11.4,8.8-18.6,9.3
			C271.5,331.4,243.1,331.3,202.9,330.6z M241.1,117.7c42.1-0.1,76.3,33.9,76.4,76c0,20.3-8,39.8-22.4,54.1
			c-4.9-28.6-32.1-47.8-60.7-42.9c-5.1,0.9-10,2.5-14.6,4.8c-5.9-22.9-25.2-40.5-49.2-44.6C182.4,136.5,210.2,117.9,241.1,117.7z"/>
	</g>
</g>
</svg>
