<?xml version="1.0" encoding="utf-8"?>
<!-- Generator: Adobe Illustrator 22.0.1, SVG Export Plug-In . SVG Version: 6.00 Build 0)  -->
<svg version="1.1" id="Isolation_Mode" xmlns="http://www.w3.org/2000/svg" xmlns:xlink="http://www.w3.org/1999/xlink" x="0px"
	 y="0px" viewBox="0 0 416.8 214.6" style="enable-background:new 0 0 416.8 214.6;" xml:space="preserve">
<style type="text/css">
	.st0{fill:url(#SVGID_1_);}
</style>
<linearGradient id="SVGID_1_" gradientUnits="userSpaceOnUse" x1="208.3987" y1="-16.9757" x2="208.3987" y2="253.0483">
	<stop  offset="0" style="stop-color:#324BC3"/>
	<stop  offset="1" style="stop-color:#EC3F8C"/>
</linearGradient>
<path class="st0" d="M416.7,117.6c-0.8-15.6-11.1-29-26.5-34.5c0-0.7,0-1.3,0-1.9c0-25.3-20.6-45.9-46-45.9c-7.3,0-14.5,1.7-20.9,5
	C317.7,16.9,295.9,0,271,0l-2.8,0.1c-21.6,1.1-40.1,14.4-47.7,34.1c-13.2-13-31.3-19.9-50-19c-31,1.5-56.8,24.1-61.6,53.8
	c-5.4-1.7-10.9-2.6-16.5-2.6c-30.7,0-55.7,25-55.7,55.6c0,0.3,0,0.6,0,1C20.7,127.5,0,137.2,0,167.9c0,25.3,22.4,45.8,49.9,45.8
	l2.6-0.1c16.3-0.8,83.3,0,86.2,0.1h1l0-1c9.6,1.2,30.3,1.2,78.7,1.3l1,0c0.4,0,37.7,0.6,64.5,0.6c11.4,0,19.5-0.1,23.9-0.3
	c25.5-1.3,47.1-25.4,46.7-52c1.3,0,2.6,0,3.8,0c9.3,0,15.9-0.1,19.6-0.3c10.9-0.5,21.1-5.8,28.5-14.8
	C413.6,138.8,417.3,128,416.7,117.6z M265.9,59.2c-9.7,0-19.2,2.5-27.6,7.3c-0.9-4.4-2.3-8.8-4.3-13.1c-0.3-0.7-0.7-1.3-1-1.9
	c-0.2-0.3-0.4-0.6-0.5-0.9c1.2-19.1,16.8-34.3,36.5-35.2l2.1-0.1c20.6,0,37.5,15.6,38.5,35.5c0,0.6,0,1.2-0.1,2.4l-0.8,20.7
	l13.9-14.1c5.8-5.9,13.6-9.2,21.8-9.2c16.9,0,30.6,13.7,30.6,30.6c0,2-0.2,4.1-0.6,6.1l-1.6,7.7l7.7,1.4c11.8,2.1,20.3,11.1,20.9,22
	c0.3,6.6-2.1,13.6-6.7,19.1c-4.7,5.7-10.9,8.9-17.5,9.3c-4.2,0.2-12.8,0.3-25.5,0.3c-5-13.2-16.3-23.7-30.3-28.3
	c0.1-1.3,0.1-2.5,0.1-3.8C321.5,84.2,296.6,59.2,265.9,59.2z M52.5,125.5l-0.1-0.5c-0.1-1-0.3-2-0.3-3c0-22.2,18.1-40.3,40.3-40.3
	c6.7,0,13.3,1.8,19.5,5.3l11.7,6.5l-0.2-13.4C123,53.7,144,31.9,171.3,30.5l2.7-0.1c12.3,0,24.1,4.4,33.3,12.2
	c5.3,4.5,9.4,9.8,12.3,15.9c2.8,5.7,4.3,11.9,4.6,18.3c0,0.8,0,1.6-0.1,3.4l-0.8,20.6l13.9-14.1c7.6-7.8,17.8-12.1,28.7-12.1
	c22.2,0,40.3,18.1,40.3,40.3c0,2.7-0.3,5.3-0.8,8l-1.6,7.7l7.8,1.4c10.3,1.8,19,7.8,23.8,16.4c2.4,4.1,3.7,8.5,3.9,12.9l0,0.2
	c0.4,8.3-2.8,17.6-8.5,24.8c-6.2,7.8-14.6,12.3-23.6,12.8c-10.2,0.5-40.6,0.4-85.5-0.3c-1.7,0-2,0-2,0c0,0,0,0,0,0
	c-33.8-0.1-73.6-0.2-79.7-0.3l-1,0c0,0-0.1,0-0.4,0l-0.4,0l0,0c-4.9-0.1-33.8-0.4-57.4-0.4c-14.4,0-24.2,0.1-29,0.4l-1.9,0
	c-19,0-34.5-13.7-34.5-30.5c0-20,11-26.6,31.5-31.6l5.7-2.4l0.2-5.8L52.5,125.5z"/>
</svg>
