<?xml version="1.0" encoding="utf-8"?>
<!-- Generator: Adobe Illustrator 22.0.1, SVG Export Plug-In . SVG Version: 6.00 Build 0)  -->
<svg version="1.1" id="Capa_1" xmlns="http://www.w3.org/2000/svg" xmlns:xlink="http://www.w3.org/1999/xlink" x="0px" y="0px"
	 viewBox="0 0 455.5 457.2" style="enable-background:new 0 0 455.5 457.2;" xml:space="preserve">
<style type="text/css">
	.st0{fill:url(#SVGID_1_);}
</style>
<linearGradient id="SVGID_1_" gradientUnits="userSpaceOnUse" x1="289.4095" y1="41.084" x2="157.4095" y2="449.084">
	<stop  offset="0" style="stop-color:#324BC3"/>
	<stop  offset="1" style="stop-color:#EC3F8C"/>
</linearGradient>
<path class="st0" d="M439.7,329.2l-56.4-56.4c-10-10.4-21.9-15.8-34.5-15.8c-12.5,0-24.6,5.4-34.8,15.7l-32.5,32.5
	c-2.7-1.5-5.4-2.9-8.1-4.2c-3.4-1.7-7-3.6-10.2-5.5c-30.3-19.3-58-44.4-84.5-76.9c-13.1-16.6-21.8-30.3-27.9-44.1
	c8.6-7.8,16.6-15.9,24.1-23.6c2.8-2.9,5.8-5.9,8.6-8.7c10.6-10.6,16.2-22.8,16.2-35.2c0-12.6-5.6-24.7-16.2-35.2l-28-28
	c-3.2-3.2-6.1-6.2-9.3-9.4l-0.3-0.3c-6.1-6.3-12.6-12.9-19.1-18.9C116.9,5.2,105,0,92.5,0C80.1,0,68,5.2,57.6,15.1L22.5,50.3
	C9.4,63.4,1.9,79.3,0.4,97.7c-1.8,22.8,2.4,46.9,13.2,76C30.1,218.6,55,260.1,92,304.5l0,0c44.8,53.5,98.8,95.8,160.6,125.8
	c23.7,11.2,55.4,24.4,90.3,26.7l0.3,0c2.1,0.1,4.1,0.2,6.2,0.2c24,0,43.2-8.3,58.9-25.3c0.2-0.2,0.4-0.4,0.6-0.7
	c5-6,10.6-11.4,16.5-17.2l1.3-1.3c5.3-5.1,9.6-9.3,13.3-13.2C460.8,377.7,460.7,350.1,439.7,329.2z M153.6,134
	c-8,8.1-15.6,15.8-23.9,23.1l-0.6,0.6c-8.5,8.5-7.2,16.7-5.2,22.9c0.1,0.2,0.1,0.3,0.2,0.5c0,0.1,0.1,0.2,0.1,0.3l0.1,0.1
	c7.4,17.8,17.7,34.5,33.3,54.1c28.2,34.8,58,61.9,91,82.9c3.5,2.3,7.1,4.1,10.5,5.8c0.7,0.3,1.4,0.7,2.1,1c3.4,1.7,7,3.6,10.2,5.5
	l0.2,0.1c0.2,0.1,0.3,0.2,0.4,0.2c0.2,0.1,0.4,0.2,0.6,0.3c3.4,1.7,6.6,2.6,10,2.6c5.6,0,10.8-2.3,15.4-7L333,292
	c5.1-5.1,10.5-7.8,15.8-7.8c7,0,12.5,4.8,15.2,7.8l56.6,56.5c10.5,10.5,10.4,21.5-0.3,32.6c-4.1,4.4-8.4,8.5-12.4,12.4l-1.1,1
	c-6.3,6.1-12.7,12.4-18.7,19.4c-10.4,11.2-22.7,16.4-38.8,16.4c-1.5,0-3.1-0.1-4.8-0.2c-30.4-1.9-58.9-13.9-80.2-24
	c-58.3-28.2-109.3-68.2-151.6-118.7c-34.9-42-58.3-81-73.8-122.9c-9.5-25.3-13.2-45.8-11.7-64.6c1.1-12.1,5.8-22.1,14.4-30.7
	l34.9-34.9c5-4.9,10.5-7.4,15.9-7.4c5.3,0,10.6,2.6,15.5,7.6c5.4,5,10.6,10.2,16,15.8l2.5,2.6c1.6,1.7,3.2,3.3,4.9,5
	c1.6,1.6,3.2,3.3,4.9,5l28,28c5.5,5.5,8.2,10.9,8.2,16.1s-2.8,10.7-8.2,16.1c-1.5,1.5-2.9,2.9-4.4,4.4c-1.5,1.5-2.9,3-4.4,4.4
	L153.6,134z"/>
</svg>
