<svg xmlns="http://www.w3.org/2000/svg" viewBox="0 0 346.69 300.8"><defs><style>.cls-1{fill:#fff;}</style></defs><title>Event Health Check</title><g id="Layer_2" data-name="Layer 2"><g id="Capa_1" data-name="Capa 1"><path class="cls-1" d="M227.58,140.1h-23v-23a12.5,12.5,0,0,0-12.5-12.58H154.61A12.51,12.51,0,0,0,142.11,117v23H119.19a12.5,12.5,0,0,0-12.58,12.43V190a12.51,12.51,0,0,0,12.5,12.5h23v22.92A12.53,12.53,0,0,0,154.61,238H192a12.51,12.51,0,0,0,12.49-12.5v-23h23.07A12.52,12.52,0,0,0,240.07,190V152.59A12.5,12.5,0,0,0,227.58,140.1Zm-76.1,43.65H125.36V158.84h26.12a9.38,9.38,0,0,0,9.38-9.37V123.28h24.91v26.13a9.38,9.38,0,0,0,9.37,9.37h26.19v25H195.2a9.39,9.39,0,0,0-9.37,9.38v26.12h-25V193.13A9.39,9.39,0,0,0,151.48,183.75Z"/><path class="cls-1" d="M295.32,45.73H240.56V24.15A23.4,23.4,0,0,0,217.92,0c-.63,0-1.26,0-1.89,0H130.66a23.44,23.44,0,0,0-24.51,22.15c0,.66,0,1.32,0,1.88V45.59H51.37C27.67,45.59,0,59.05,0,97V249.43c0,37.92,27.67,51.37,51.37,51.37h244c23.7,0,51.37-13.45,51.37-51.37V97.1C346.69,59.19,319,45.73,295.32,45.73Zm-169.17-.14V24.06c0-2.64.32-4.5,4.5-4.5H216.1c4.19,0,4.51,1.78,4.51,4.5V45.59ZM326.67,97.1V249.43c0,27.28-19.64,31.35-31.35,31.35H51.37c-11.71,0-31.35-4.07-31.35-31.35V97.1c0-27.27,19.64-31.35,31.35-31.35h244C307,65.75,326.67,69.83,326.67,97.1Z"/></g></g></svg>