<svg xmlns="http://www.w3.org/2000/svg" xmlns:xlink="http://www.w3.org/1999/xlink" viewBox="0 0 418.55 409.58"><defs><style>.cls-1{fill:url(#linear-gradient);}.cls-2{fill:url(#linear-gradient-2);}.cls-3{fill:url(#linear-gradient-3);}.cls-4{fill:url(#linear-gradient-4);}.cls-5{fill:url(#linear-gradient-5);}</style><linearGradient id="linear-gradient" x1="204.77" y1="3.68" x2="204.77" y2="410.76" gradientUnits="userSpaceOnUse"><stop offset="0" stop-color="#324bc3"/><stop offset="1" stop-color="#ec3f8c"/></linearGradient><linearGradient id="linear-gradient-2" x1="225.49" y1="3.68" x2="225.49" y2="410.76" xlink:href="#linear-gradient"/><linearGradient id="linear-gradient-3" x1="80.16" y1="3.68" x2="80.16" y2="410.76" xlink:href="#linear-gradient"/><linearGradient id="linear-gradient-4" x1="56.44" y1="3.68" x2="56.44" y2="410.76" xlink:href="#linear-gradient"/><linearGradient id="linear-gradient-5" x1="368.86" y1="3.68" x2="368.86" y2="410.76" xlink:href="#linear-gradient"/></defs><title>Food</title><g id="Layer_2" data-name="Layer 2"><g id="Capa_1" data-name="Capa 1"><path class="cls-1" d="M400.31,256.24H9.24A9.26,9.26,0,0,0,0,265.48c0,79.46,64.64,144.1,144.09,144.1H265.46c79.45,0,144.09-64.64,144.09-144.1A9.26,9.26,0,0,0,400.31,256.24Zm-9.58,18.49A125.53,125.53,0,0,1,265.46,391.09H144.09A125.53,125.53,0,0,1,18.82,274.73Z"/><path class="cls-2" d="M102.09,233.73l13.07,13.07,39.49-39.5H265.46a29.48,29.48,0,0,0,29.46-29.45,29.6,29.6,0,0,0-2.12-11h5c15.74.41,29.3-11.78,30.79-27.9a29.39,29.39,0,0,0-2.42-13.34A29.47,29.47,0,0,0,348.89,97h0c0-.53,0-1.07-.06-2a30.41,30.41,0,0,0-16.95-24.46l5-5A38.66,38.66,0,0,0,340,13.85a37.94,37.94,0,0,0-53.35-5.16c-1,.78-1.83,1.58-2.71,2.46l-5.66,5.74A30.75,30.75,0,0,0,253.55.05a29.44,29.44,0,0,0-31,27.85c0,.54,0,1.08,0,1.6v6.35a29.5,29.5,0,0,0-11-2.14c-.52,0-1.06,0-2,.07a30.41,30.41,0,0,0-27.53,30.58v5.18a29.4,29.4,0,0,0-11-2.11c-.52,0-1.05,0-2,.06a30.42,30.42,0,0,0-27.54,30.58v96.15Zm58-135.82a11.93,11.93,0,0,1,10.43-12l.57,0a11,11,0,0,1,11,11,9.24,9.24,0,0,0,18.48,0V64.2a12,12,0,0,1,10.43-12h.57a11,11,0,0,1,11,11,9.25,9.25,0,0,0,18.49,0V28.89a10.9,10.9,0,0,1,11.25-10.41A12,12,0,0,1,263,30.66v5.59a9.24,9.24,0,0,0,15.83,6.48L297,24.2c.46-.45.92-.87,1.38-1.25a19.38,19.38,0,0,1,27.21,2.51,20.16,20.16,0,0,1-1.78,27L306.12,70.17a9.24,9.24,0,0,0,6.54,15.77h5.95a11.81,11.81,0,0,1,11.78,10.43l0,.58a11,11,0,0,1-11,11H299.17a9.25,9.25,0,0,0-.07,18.49h0l.68,0a11,11,0,0,1,10.41,11.19A12,12,0,0,1,298,148.37H265.46a9.24,9.24,0,1,0,0,18.48,11,11,0,0,1,0,22H173.13l8.52-8.52h45.84V161.82H200.14l22-22H261.2V121.36H240.59l21.9-21.9h32.42V81H281l26.5-26.5L294.41,41.41,267.94,67.87V54H249.46V86.36l-22,22V87.72H209v39.09l-22,22V121.36H168.55v45.91l-8.47,8.47Z"/><path class="cls-3" d="M40.72,77.62l4.59,3.59v2.23a36.21,36.21,0,0,0,72.42,0V81.21l5-3.89a33.56,33.56,0,0,0,7.81-44.88l-.15-.22A33.62,33.62,0,0,0,83.86,23c-.48.32-1,.66-1.53,1.08l-1,.73-.71-.51A33.65,33.65,0,0,0,33.81,25.6a33.48,33.48,0,0,0,6.91,52Zm6.39-39.19a15,15,0,0,1,21.28-.36,8.39,8.39,0,0,0,1,.82l6.74,4.86a9.18,9.18,0,0,0,11-.13l7.05-5.31a14.94,14.94,0,0,1,17.31,24.35l-8.66,6.76a9.31,9.31,0,0,0-3.55,7.28v6.74a17.73,17.73,0,0,1-35.46,0V76.7a9.14,9.14,0,0,0-3.55-7.28l-8.62-6.74a8.73,8.73,0,0,0-1.12-.75,15,15,0,0,1-3.39-23.5Z"/><path class="cls-4" d="M29.47,214h4.24v17.73A9.25,9.25,0,0,0,43,241h27a9.25,9.25,0,0,0,9.24-9.24V214h4.24a29.47,29.47,0,0,0,1-58.92,29.49,29.49,0,0,0-56,0,29.47,29.47,0,0,0,1,58.92Zm31.21,0v8.49H52.2V214ZM45.46,164.35a11,11,0,0,1,22,0,9.25,9.25,0,0,0,9.24,9.25h6.74a11,11,0,1,1,0,22H29.47a11,11,0,1,1,0-22h6.74A9.26,9.26,0,0,0,45.46,164.35Z"/><path class="cls-5" d="M368.86,220.79a22.73,22.73,0,1,0-22.73-22.73A22.75,22.75,0,0,0,368.86,220.79Zm0-18.48a4.25,4.25,0,1,1,4.24-4.24A4.24,4.24,0,0,1,368.86,202.31Z"/><path class="cls-5" d="M319.16,198.06a49.7,49.7,0,1,0,49.7-49.7A49.76,49.76,0,0,0,319.16,198.06Zm49.7-31.21a31.22,31.22,0,1,1-31.22,31.22A31.25,31.25,0,0,1,368.86,166.85Z"/></g></g></svg>