<svg id="Isolation_Mode" data-name="Isolation Mode" xmlns="http://www.w3.org/2000/svg" xmlns:xlink="http://www.w3.org/1999/xlink" viewBox="0 0 368.21 416.89"><defs><style>.cls-1{fill:url(#linear-gradient);}.cls-2{fill:url(#linear-gradient-2);}.cls-3{fill:url(#linear-gradient-3);}.cls-4{fill:url(#linear-gradient-4);}.cls-5{fill:url(#linear-gradient-5);}.cls-6{fill:url(#linear-gradient-6);}</style><linearGradient id="linear-gradient" x1="184.11" y1="-32.96" x2="184.11" y2="366.49" gradientUnits="userSpaceOnUse"><stop offset="0" stop-color="#324bc3"/><stop offset="1" stop-color="#ec3f8c"/></linearGradient><linearGradient id="linear-gradient-2" x1="84.22" y1="-32.96" x2="84.22" y2="366.49" xlink:href="#linear-gradient"/><linearGradient id="linear-gradient-3" x1="140.49" y1="-32.96" x2="140.49" y2="366.49" xlink:href="#linear-gradient"/><linearGradient id="linear-gradient-4" x1="230.62" y1="-32.96" x2="230.62" y2="366.49" xlink:href="#linear-gradient"/><linearGradient id="linear-gradient-5" x1="268.36" y1="-32.96" x2="268.36" y2="366.49" xlink:href="#linear-gradient"/><linearGradient id="linear-gradient-6" x1="186.93" y1="-32.96" x2="186.93" y2="366.49" xlink:href="#linear-gradient"/></defs><title>Weather-03-Active</title><path class="cls-1" d="M368.14,151.55c-1-20.31-14.08-37.6-33.71-45,0-.44,0-.89,0-1.34A60.25,60.25,0,0,0,248.6,50.66C240,19.64,210.42-1.72,177,.11,145.07,1.71,118.46,24,111.65,53.93a57.54,57.54,0,0,0-14-1.71,60.31,60.31,0,0,0-60.22,58.47C25,114.46,0,124.79,0,159.14c0,26.58,22.36,48.45,50.82,49.8l2.87.14,14.88-23-10.22.32-2.18.08-1.84.05c-17.35,0-31.46-12.33-31.48-27.44,0-16.42,6.84-23.12,29.29-28.7l8.54-3.2.24-8.52-.28-2.94,0-.23a21.69,21.69,0,0,1-.3-3.07A37.42,37.42,0,0,1,97.7,75.07,36.94,36.94,0,0,1,115.83,80l17.35,9.73-.35-19.88c-.43-25,19.46-45.6,45.27-46.9l2.64-.07c25.37,0,46.18,19.22,47.4,43.78,0,.61,0,1.43-.11,3.4L227,99.94,247.58,79a37.35,37.35,0,0,1,64,26.18,37.73,37.73,0,0,1-.76,7.47l-2.34,11.51,11.55,2c14.23,2.49,24.62,13.39,25.27,26.51.72,14.17-9.44,29.08-22.64,33.24l-5,1.56,7.7,21.45,4.63-1.54C353.36,199.65,369.38,176.16,368.14,151.55Z"/><path class="cls-2" d="M101.24,237.82c-10.4-14.62-13-37.49-13.81-45-.31-2.8-.78-7-5.19-7h-.17c-4.57.11-4.85,4.53-5,6.91-1.81,29.56-12.74,44.91-12.84,45.05l-.26.35-.19.39a19.43,19.43,0,0,0-2.05,8.62c0,11.05,9.41,20,21,20s21-9,21-20c0-.53,0-1.06-.07-1.59h3.11Z"/><path class="cls-3" d="M160.07,203.67a17,17,0,0,0-1.94-7.86l-.19-.37-.25-.34c-9.28-12.43-11.57-32-12.32-38.39-.28-2.38-.8-6.78-5.45-6.7s-5,4.72-5.08,6.69c-1.64,25.16-11.38,38.21-11.47,38.32l-.26.35-.21.38a16.77,16.77,0,0,0-2,7.92c0,10,8.79,18.07,19.6,18.07S160.07,213.63,160.07,203.67Z"/><path class="cls-4" d="M233.53,215.43c-.2-1.7-.74-6.2-5.35-6.12-3.08.07-4.77,2.15-5,6.18-1.19,18.41-8.26,28-8.31,28l-.29.37-.21.41a14,14,0,0,0-1.61,6.47c0,8.16,7.15,14.79,15.93,14.79,8.48,0,15.44-6.2,15.89-14h4l-6-8C235.76,234.55,234.08,220.16,233.53,215.43Z"/><path class="cls-5" d="M271.35,145.75c-.22-1.92-.74-6.37-5.21-6.37H266c-4.65.12-4.95,4.86-5,6.42-1.41,21.59-9.74,32.8-9.81,32.88l-.28.36-.21.41a15.37,15.37,0,0,0-1.77,7.14c0,9,7.91,16.34,17.64,16.34s17.55-7.24,17.64-16.18h3.77l-6-8C274,168.1,272,151.28,271.35,145.75Z"/><polygon class="cls-6" points="209.46 198.95 192.92 198.95 127.03 304.16 196.92 304.28 129.8 407.81 127.74 410.99 135.8 416.89 246.84 282.27 169.07 281.88 209.46 198.95"/></svg>