<svg xmlns="http://www.w3.org/2000/svg" viewBox="0 0 95.5 87.67"><defs><style>.cls-1{fill:#fff;}</style></defs><title>Event Meeting</title><g id="Layer_2" data-name="Layer 2"><g id="Layer_1-2" data-name="Layer 1"><path class="cls-1" d="M47.75,58.86a2.24,2.24,0,0,0-2.24,2.23V85.44a2.24,2.24,0,0,0,4.48,0V61.09A2.24,2.24,0,0,0,47.75,58.86Z"/><path class="cls-1" d="M29,56.18H66.54a2.24,2.24,0,0,0,0-4.47H29a2.24,2.24,0,0,0,0,4.47Z"/><path class="cls-1" d="M47.86,19.13a9.57,9.57,0,1,0-9.57-9.56A9.57,9.57,0,0,0,47.86,19.13Zm-5.1-9.56a5.1,5.1,0,1,1,5.1,5.09A5.11,5.11,0,0,1,42.76,9.57Z"/><path class="cls-1" d="M37.47,47.87a2.23,2.23,0,0,0,2.23-2.23V30.58A5.6,5.6,0,0,1,45.28,25h4.93a5.59,5.59,0,0,1,5.55,4.93c0,.22,0,.44,0,.66V45.7a2.24,2.24,0,0,0,4.47,0V30.58a11.65,11.65,0,0,0-.07-1.17,10.06,10.06,0,0,0-10-8.89H45.28A10.07,10.07,0,0,0,35.23,30.58V45.64A2.23,2.23,0,0,0,37.47,47.87Z"/><path class="cls-1" d="M86,38.86a9.52,9.52,0,1,0-9.52-9.52A9.53,9.53,0,0,0,86,38.86Zm-5-9.52a5,5,0,1,1,5,5A5.05,5.05,0,0,1,80.94,29.34Z"/><path class="cls-1" d="M86.61,39.31h-2a8.86,8.86,0,0,0-8.86,8.86V58.62h-4a9.66,9.66,0,0,0-9.65,9.65V82.2a4.46,4.46,0,0,0,4.46,4.46h6A4.46,4.46,0,0,0,77,82.2V74h9a9.45,9.45,0,0,0,9.44-9.45V48.17A8.86,8.86,0,0,0,86.61,39.31ZM72.53,82.18l-6,0V68.27a5.18,5.18,0,0,1,5.18-5.18H78a2.24,2.24,0,0,0,2.24-2.24V48.17a4.4,4.4,0,0,1,4.39-4.39h2A4.4,4.4,0,0,1,91,48.17V64.58a5,5,0,0,1-5,5H74.75a2.24,2.24,0,0,0-2.24,2.24Z"/><path class="cls-1" d="M9.51,38.86A9.52,9.52,0,1,0,0,29.34,9.53,9.53,0,0,0,9.51,38.86Zm-5-9.52a5,5,0,1,1,5,5A5,5,0,0,1,4.47,29.34Z"/><path class="cls-1" d="M23.79,58.62h-4V48.17a8.86,8.86,0,0,0-8.85-8.86h-2A8.86,8.86,0,0,0,0,48.17V64.58A9.45,9.45,0,0,0,9.47,74h9V82.2A4.46,4.46,0,0,0,23,86.66h6a4.46,4.46,0,0,0,4.45-4.46V68.27A9.66,9.66,0,0,0,23.79,58.62Zm-3,10.93H9.47a5,5,0,0,1-5-5V48.17a4.39,4.39,0,0,1,4.38-4.39h2a4.4,4.4,0,0,1,4.39,4.39V60.85a2.24,2.24,0,0,0,2.24,2.24h6.25A5.18,5.18,0,0,1,29,68.27V82.18l-6,0V71.79A2.24,2.24,0,0,0,20.75,69.55Z"/></g></g></svg>