<svg xmlns="http://www.w3.org/2000/svg" xmlns:xlink="http://www.w3.org/1999/xlink" viewBox="0 0 435.94 349.52"><defs><style>.cls-1{fill:url(#linear-gradient);}.cls-2{fill:url(#linear-gradient-2);}.cls-3{fill:url(#linear-gradient-3);}.cls-4{fill:url(#linear-gradient-4);}.cls-5{fill:url(#linear-gradient-5);}.cls-6{fill:url(#linear-gradient-6);}</style><linearGradient id="linear-gradient" x1="141.12" y1="20.98" x2="141.12" y2="351.52" gradientUnits="userSpaceOnUse"><stop offset="0" stop-color="#324bc3"/><stop offset="1" stop-color="#ec3f8c"/></linearGradient><linearGradient id="linear-gradient-2" x1="243.18" y1="20.98" x2="243.18" y2="351.52" xlink:href="#linear-gradient"/><linearGradient id="linear-gradient-3" x1="375.3" y1="20.98" x2="375.3" y2="351.52" xlink:href="#linear-gradient"/><linearGradient id="linear-gradient-4" x1="390.41" y1="20.98" x2="390.41" y2="351.52" xlink:href="#linear-gradient"/><linearGradient id="linear-gradient-5" x1="336.25" y1="20.98" x2="336.25" y2="351.52" xlink:href="#linear-gradient"/><linearGradient id="linear-gradient-6" x1="167.91" y1="20.98" x2="167.91" y2="351.52" xlink:href="#linear-gradient"/></defs><title>Weather-Monday</title><g id="Layer_2" data-name="Layer 2"><g id="Isolation_Mode" data-name="Isolation Mode"><path class="cls-1" d="M158.56,122.66a8.92,8.92,0,0,0,6.17,3.07l.62,0a9,9,0,0,0,6.76-15L123.7,55.47a9,9,0,1,0-13.58,11.86Z"/><path class="cls-2" d="M243.43,91.56h.07a9,9,0,0,0,8.94-9.06L251.92,9a9.07,9.07,0,0,0-9.07-9h0a9,9,0,0,0-8.92,9.08l.52,73.53A9,9,0,0,0,243.43,91.56Z"/><path class="cls-3" d="M412,280.15,347,245.93a9,9,0,1,0-8.4,15.94l65.08,34.24a9.09,9.09,0,0,0,4.17,1,8.94,8.94,0,0,0,8-4.79,8.79,8.79,0,0,0,.69-6.81A9,9,0,0,0,412,280.15Z"/><path class="cls-4" d="M435.88,164.25a9,9,0,0,0-10-7.89l-73,8.53a9,9,0,0,0,2.08,17.89l73-8.52a9.06,9.06,0,0,0,6.08-3.41A8.93,8.93,0,0,0,435.88,164.25Z"/><path class="cls-5" d="M308.06,117.39a9.08,9.08,0,0,0,12.65-1.59h0l45.26-58a9,9,0,1,0-14.18-11.08l-45.28,58A9,9,0,0,0,308.06,117.39Z"/><path class="cls-6" d="M305.34,263.51A94.61,94.61,0,0,0,184.43,118.29a95.84,95.84,0,0,0-33.36,46.53,62.22,62.22,0,0,0-23.84,8.5l-68.4-5.59a9.08,9.08,0,0,0-9.7,8.26,9,9,0,0,0,8.25,9.73l51.88,4.22a59.2,59.2,0,0,0-10,22.49A50.32,50.32,0,0,0,86,210.67a52.72,52.72,0,0,0-52.65,51.87C18.51,267,0,276.41,0,304.92c0,24.14,21.31,43.78,47.53,43.77l2.44-.05c14.38-.74,71.47,0,77.93.05h2.57v-.78c9.89.92,30,1,70.18,1h.54c.34,0,34.21.57,58.57.57,10.46,0,17.79-.1,21.79-.3,11.77-.58,22.89-6,31.3-15.32A50.06,50.06,0,0,0,326,298.22C325.31,284.2,317.64,271.36,305.34,263.51ZM202.89,330.62l-1.52,0h0c-24,0-61.29-.13-70.75-.21l-2.42,0h-.31l-1.88-.06v0c-7.24-.09-31-.35-50.61-.35-13,0-21.88.12-26.28.34l-1.65,0c-16,0-29.1-11.41-29.11-25.44,0-16.91,8.64-22,26.84-26.52l6.63-2.64.43-6.61-.21-2.7-.1-.79a17.53,17.53,0,0,1-.21-2.31A34.34,34.34,0,0,1,86,229a33.81,33.81,0,0,1,16.64,4.52l13.93,7.81-.27-16a41.12,41.12,0,0,1,17-34,8.9,8.9,0,0,0,5.38-3.55,44.45,44.45,0,0,1,13.7-4.66,46,46,0,0,1,5.13-.58l2.36-.06a44.92,44.92,0,0,1,5.35.35c21,2.5,36.95,19.12,38,39.49,0,.66,0,1.41-.12,3.42l-.83,23.91,16.54-16.86a34.28,34.28,0,0,1,58.74,24,34.57,34.57,0,0,1-.66,6.67,2.93,2.93,0,0,0-.05.37l-1.81,9,9.24,1.63a32.1,32.1,0,0,1,4.77,1.23c10.77,3.7,18,12.86,18.55,23.35h0a32,32,0,0,1-8.39,22.46,27.16,27.16,0,0,1-18.62,9.3C271.46,331.35,243.13,331.25,202.89,330.62Zm38.23-212.88a76.2,76.2,0,0,1,54,130.15,52.57,52.57,0,0,0-75.25-38.19c-5.88-22.92-25.2-40.53-49.22-44.6A76.6,76.6,0,0,1,241.12,117.74Z"/></g></g></svg>